<svg width="100" height="100" viewBox="0 0 100 100" fill="none" xmlns="http://www.w3.org/2000/svg">
<rect width="100" height="100" rx="50" fill="#2C4478" fill-opacity="0.1"/>
<path d="M35.9377 43.4374C35.4202 43.4374 35.0002 43.8574 35.0002 44.3749C35.0002 44.8924 35.4202 45.3124 35.9377 45.3124C36.4552 45.3124 36.8752 44.8924 36.8752 44.3749C36.8752 43.8574 36.4552 43.4374 35.9377 43.4374Z" fill="#2C4478"/>
<path d="M58.4374 45.3124H53.7498V40.6249C53.7498 40.1072 53.33 39.6874 52.8123 39.6874H47.1873C46.6696 39.6874 46.2498 40.1072 46.2498 40.6249V45.3124H41.5623C41.0446 45.3124 40.6248 45.7322 40.6248 46.2499V51.8749C40.6248 52.3926 41.0446 52.8124 41.5623 52.8124H46.2498V57.5C46.2498 58.0176 46.6696 58.4375 47.1873 58.4375H52.8123C53.33 58.4375 53.7498 58.0176 53.7498 57.5V52.8124H58.4374C58.9551 52.8124 59.3749 52.3926 59.3749 51.8749V46.2499C59.3749 45.7322 58.9551 45.3124 58.4374 45.3124ZM57.4999 50.9374H52.8123C52.2947 50.9374 51.8748 51.3572 51.8748 51.8749V56.5624H48.1248V51.8749C48.1248 51.3572 47.705 50.9374 47.1873 50.9374H42.4998V47.1874H47.1873C47.705 47.1874 48.1248 46.7676 48.1248 46.2499V41.5624H51.8748V46.2499C51.8748 46.7676 52.2947 47.1874 52.8123 47.1874H57.4999V50.9374Z" fill="#2C4478"/>
<path d="M64.4729 28.882C62.9551 29.8675 61.1923 30.3883 59.3752 30.3883C56.5963 30.3883 53.9768 29.1655 52.1885 27.0333C52.1884 27.0333 52.1884 27.0333 52.1884 27.0333C51.6376 26.3767 50.84 26 50.0002 26C49.1604 26 48.3627 26.3767 47.8118 27.0332C46.0236 29.1654 43.404 30.3882 40.6251 30.3882C38.8081 30.3882 37.0453 29.8673 35.5275 28.8819C33.6737 27.6788 31.2501 29.0953 31.2501 31.2788V50.4012C31.2501 54.6547 32.6145 58.8106 35.0918 62.1031C41.2203 70.2518 49.29 73.7778 49.6305 73.924C49.7485 73.9746 49.8744 74 50.0002 74C50.1259 74 50.2519 73.9746 50.3698 73.924C50.7103 73.7778 58.7801 70.2519 64.9084 62.1041C67.3859 58.8106 68.7502 54.6543 68.7502 50.4012V31.2789C68.7502 29.0952 66.326 27.6788 64.4729 28.882ZM63.41 60.977C58.3136 67.7529 51.629 71.2459 49.9996 72.0296C48.3696 71.2478 41.6979 67.7677 36.5902 60.976C34.3557 58.0063 33.1251 54.2508 33.1251 50.4013V31.2789C33.1251 30.5652 33.9127 30.0693 34.5064 30.4546C36.329 31.6379 38.4449 32.2633 40.6251 32.2633C43.9598 32.2633 47.103 30.7963 49.2484 28.2383C49.4449 28.004 49.7118 27.875 50.0002 27.875C50.2885 27.875 50.5555 28.004 50.7519 28.2383C52.8974 30.7962 56.0405 32.2633 59.3752 32.2633C61.5555 32.2633 63.6712 31.6379 65.4939 30.4546C66.078 30.0752 66.8752 30.5544 66.8752 31.2789V50.4012C66.8752 54.2505 65.6447 58.0063 63.41 60.977Z" fill="#2C4478"/>
<path d="M64.6036 33.5021C64.3548 33.3264 64.0364 33.2825 63.7493 33.3842C62.3388 33.8847 60.8671 34.1384 59.3753 34.1384C56.1528 34.1384 53.0451 32.9488 50.6244 30.7887C50.2688 30.4713 49.7316 30.4713 49.3761 30.7887C46.9555 32.9488 43.8477 34.1384 40.6252 34.1384C39.1334 34.1384 37.6617 33.8847 36.2512 33.3842C35.9639 33.2825 35.6457 33.3264 35.3968 33.5021C35.1482 33.6778 35.0003 33.9633 35.0003 34.2678V40.625C35.0003 41.1427 35.4201 41.5626 35.9378 41.5626C36.4555 41.5626 36.8753 41.1427 36.8753 40.625V35.5351C38.0995 35.8529 39.3559 36.0135 40.6253 36.0135C44.0373 36.0135 47.3355 34.8479 50.0003 32.7152C52.6652 34.8479 55.9633 36.0135 59.3754 36.0135C60.6448 36.0135 61.9012 35.8529 63.1254 35.5351V50.4013C63.1254 53.4436 62.1623 56.398 60.4128 58.7207C56.8678 63.436 52.5381 66.3557 50.0091 67.7932C47.4603 66.3368 43.1027 63.395 39.5875 58.7222C37.8385 56.3981 36.8752 53.443 36.8752 50.4012V48.125C36.8752 47.6073 36.4554 47.1875 35.9377 47.1875C35.42 47.1875 35.0002 47.6073 35.0002 48.125V50.4012C35.0002 53.8471 36.0973 57.2026 38.0892 59.8495C42.0315 65.0903 46.9655 68.2636 49.5558 69.6887C49.6965 69.766 49.852 69.8048 50.0076 69.8048C50.1623 69.8048 50.3172 69.7665 50.4573 69.6899C53.0275 68.2852 57.9334 65.1385 61.9109 59.8481C63.903 57.2028 65.0002 53.848 65.0002 50.4012V34.2677C65.0002 33.9632 64.8523 33.6778 64.6036 33.5021Z" fill="#2C4478"/>
</svg>
