<svg width="100" height="100" viewBox="0 0 100 100" fill="none" xmlns="http://www.w3.org/2000/svg">
<rect width="100" height="100" rx="50" fill="#2C4478" fill-opacity="0.1"/>
<path d="M40.9395 70H52.9394C62.9394 70 66.9394 66 66.9394 56V44C66.9394 34 62.9394 30 52.9394 30H40.9395C30.9395 30 26.9395 34 26.9395 44V56C26.9395 66 30.9395 70 40.9395 70Z" stroke="#2C4478" stroke-width="1.5" stroke-linecap="round" stroke-linejoin="round"/>
<path opacity="0.4" d="M26.9395 51.4002L38.9395 51.3602C40.4395 51.3602 42.1195 52.5002 42.6795 53.9002L44.9594 59.6602C45.4794 60.9602 46.2994 60.9602 46.8194 59.6602L51.3994 48.0402C51.8394 46.9202 52.6594 46.8802 53.2194 47.9402L55.2994 51.8802C55.9194 53.0602 57.5194 54.0202 58.8394 54.0202H66.9594" stroke="#2C4478" stroke-width="1.5" stroke-linecap="round" stroke-linejoin="round"/>
</svg>
