<svg width="100" height="100" viewBox="0 0 100 100" fill="none" xmlns="http://www.w3.org/2000/svg">
<rect width="100" height="100" rx="50" fill="#2C4478" fill-opacity="0.1"/>
<path fill-rule="evenodd" clip-rule="evenodd" d="M51.224 61.0921C49.5065 63.4516 46.727 65.0041 43.64 65.0041C38.702 65.0041 34.8335 60.9976 35.006 56.0626C35.0945 53.5156 36.2345 51.2146 37.991 49.5691C38.279 49.2991 38.585 49.0471 38.9045 48.8146C39.5735 48.3271 39.7205 47.3881 39.233 46.7191C38.7455 46.0486 37.8065 45.9016 37.1375 46.3891C36.719 46.6951 36.3185 47.0251 35.9405 47.3806C33.6215 49.5511 32.1245 52.5946 32.0075 55.9576C31.775 62.6071 36.9875 68.0041 43.64 68.0041C47.711 68.0041 51.383 65.9701 53.6495 62.8576C54.1355 62.1886 53.9885 61.2496 53.3195 60.7621C52.649 60.2746 51.71 60.4231 51.224 61.0921Z" fill="#2C4478"/>
<path fill-rule="evenodd" clip-rule="evenodd" d="M41.3695 40.9996L45.571 56.3851C45.7495 57.0376 46.342 57.4906 47.0185 57.4906H55.192L60.73 65.7886C60.9805 66.1621 61.384 66.4051 61.831 66.4486C62.278 66.4936 62.7205 66.3346 63.0385 66.0166L67.669 61.3861C68.2555 60.8011 68.2555 59.8501 67.669 59.2651C67.084 58.6801 66.133 58.6801 65.548 59.2651L62.2105 62.6026L57.2425 55.1566C56.9635 54.7396 56.4955 54.4906 55.9945 54.4906H48.163L46.5205 48.4741H50.0185C50.8465 48.4741 51.5185 47.8021 51.5185 46.9741C51.5185 46.1461 50.8465 45.4741 50.0185 45.4741H45.7015L44.275 40.2556C45.4795 39.4471 46.2715 38.0731 46.2715 36.5176C46.2715 34.0336 44.2555 32.0176 41.7715 32.0176C39.2875 32.0176 37.2715 34.0336 37.2715 36.5176C37.2715 38.8651 39.073 40.7956 41.3695 40.9996ZM41.7715 35.0176C42.5995 35.0176 43.2715 35.6896 43.2715 36.5176C43.2715 37.3441 42.5995 38.0176 41.7715 38.0176C40.9435 38.0176 40.2715 37.3441 40.2715 36.5176C40.2715 35.6896 40.9435 35.0176 41.7715 35.0176Z" fill="#2C4478"/>
</svg>
