<svg width="100" height="100" viewBox="0 0 100 100" fill="none" xmlns="http://www.w3.org/2000/svg">
<rect width="100" height="100" rx="50" fill="#2C4478" fill-opacity="0.1"/>
<g clip-path="url(#clip0_106_120)">
<path d="M63.0634 36.9361C62.6969 36.5695 62.1034 36.5695 61.7378 36.9361C61.3712 37.3026 61.3712 37.8961 61.7378 38.2617C62.1034 38.6281 62.6969 38.6281 63.0634 38.2617C63.43 37.8961 63.43 37.3026 63.0634 36.9361Z" fill="#2C4478"/>
<path d="M38.2627 61.7377C37.897 61.3713 37.3027 61.3713 36.937 61.7377C36.5705 62.1034 36.5705 62.6977 36.937 63.0634C37.3027 63.4299 37.897 63.4299 38.2627 63.0634C38.6292 62.6977 38.6292 62.1034 38.2627 61.7377Z" fill="#2C4478"/>
<path d="M72.6255 40.6334L59.3678 27.3759C57.536 25.5429 54.5712 25.5426 52.7383 27.3756L27.3746 52.7392C25.5425 54.5714 25.541 57.536 27.3746 59.3684L40.6323 72.6259C40.6323 72.6259 40.6323 72.6259 40.6325 72.6262C42.4641 74.4589 45.4288 74.4592 47.2618 72.6262L72.6254 47.2625C74.4575 45.4304 74.459 42.4657 72.6255 40.6334ZM71.2996 45.9367L45.9359 71.3005C44.8366 72.3999 43.0584 72.4012 41.9586 71.3008C41.9586 71.3007 41.9585 71.3006 41.9584 71.3005L28.7003 58.0424C27.6006 56.9435 27.6004 55.165 28.7005 54.0651L54.0641 28.7014C55.1636 27.6017 56.9419 27.6009 58.0416 28.7014L71.2997 41.9595C72.3996 43.0583 72.3997 44.8369 71.2996 45.9367Z" fill="#2C4478"/>
<path d="M67.7038 41.5761C66.2415 40.114 63.8625 40.1139 62.4005 41.5759C60.9348 43.0404 60.9337 45.4135 62.4003 46.8787C63.8662 48.3448 66.2378 48.3448 67.7038 46.8787V46.8788C69.1688 45.4137 69.169 43.0414 67.7038 41.5761ZM66.3781 45.5529C65.645 46.2861 64.4597 46.2866 63.7258 45.5527C62.9932 44.8207 62.9927 43.6347 63.7261 42.902C64.4573 42.1707 65.6469 42.1708 66.3781 42.902C67.1102 43.6342 67.1102 44.8208 66.3781 45.5529Z" fill="#2C4478"/>
<path d="M60.7937 48.4863C59.3314 47.0242 56.9524 47.0241 55.4904 48.486C54.0244 49.9509 54.0237 52.3235 55.4904 53.7902C56.9524 55.251 59.3313 55.251 60.7934 53.7902C60.7936 53.79 60.7938 53.7898 60.7939 53.7895C62.2553 52.3268 62.2552 49.9479 60.7937 48.4863ZM59.4678 52.4641C58.7365 53.1948 57.5468 53.1945 56.8159 52.4641C56.0831 51.7314 56.0824 50.5451 56.8159 49.8121C57.5472 49.0809 58.7367 49.081 59.4678 49.8121C60.1985 50.5428 60.1985 51.7325 59.4678 52.4641Z" fill="#2C4478"/>
<path d="M53.7907 55.491C52.3254 54.0258 49.9527 54.0244 48.4872 55.491C47.0251 56.9534 47.0251 59.3324 48.4872 60.7947C49.9491 62.2564 52.3279 62.2561 53.7905 60.7949C53.7906 60.7948 53.7908 60.7946 53.791 60.7943C55.2517 59.3323 55.2517 56.9534 53.7907 55.491ZM52.4647 59.4691C51.7331 60.1994 50.5437 60.1996 49.8131 59.4688C49.082 58.7376 49.082 57.5479 49.8134 56.8165C50.5444 56.0849 51.7307 56.0825 52.4647 56.8164C53.1954 57.5479 53.1954 58.7379 52.4647 59.4691Z" fill="#2C4478"/>
<path d="M46.88 62.4015C45.4153 60.9356 43.0424 60.9348 41.5771 62.4013C40.1149 63.8636 40.1149 66.2427 41.5771 67.7049C43.039 69.1667 45.4176 69.1668 46.8797 67.7049C46.8797 67.7049 46.8797 67.7049 46.8797 67.7048C48.3419 66.2426 48.3419 63.8635 46.88 62.4015ZM45.5539 66.379C44.8231 67.1099 43.6338 67.1099 42.903 66.379C42.1718 65.6478 42.1718 64.4581 42.9032 63.7267C43.6354 62.994 44.8212 62.9937 45.5539 63.7269C46.2851 64.4582 46.2851 65.648 45.5539 66.379Z" fill="#2C4478"/>
<path d="M58.4228 32.2957C56.9607 30.8339 54.5821 30.8336 53.1201 32.2958C51.6579 33.758 51.6579 36.1371 53.1198 37.599C54.585 39.0654 56.9578 39.0654 58.423 37.599C59.8849 36.1368 59.8848 33.7578 58.4228 32.2957ZM57.0968 36.2736C57.0968 36.2737 57.0967 36.2738 57.0966 36.2739C56.3644 37.0066 55.1786 37.0069 54.4459 36.2737C53.7147 35.5424 53.7147 34.3527 54.4459 33.6216C55.1768 32.8906 56.3659 32.8906 57.0968 33.6216C57.828 34.3528 57.828 35.5424 57.0968 36.2736Z" fill="#2C4478"/>
<path d="M51.5126 39.2056C50.0509 37.744 47.6719 37.7438 46.2088 39.2059C44.7481 40.668 44.7481 43.0469 46.2091 44.5092C47.6748 45.9749 50.0474 45.9755 51.5129 44.5089C52.9747 43.0467 52.9746 40.6677 51.5126 39.2056ZM50.1868 43.1834C50.1867 43.1835 50.1866 43.1836 50.1865 43.1837C49.4555 43.9152 48.2692 43.9176 47.5352 43.1837C46.8044 42.4524 46.8044 41.2624 47.5345 40.5317C48.2655 39.8013 49.4554 39.7998 50.1868 40.5314C50.9179 41.2625 50.9179 42.4522 50.1868 43.1834Z" fill="#2C4478"/>
<path d="M44.5089 46.2088C43.0467 44.748 40.6679 44.7479 39.2053 46.2095C37.744 47.6723 37.7441 50.0512 39.2056 51.5127C40.6676 52.9746 43.0465 52.9751 44.5089 51.513C45.9749 50.0483 45.9756 47.6756 44.5089 46.2088ZM43.1837 50.1867C43.1836 50.1867 43.1835 50.1868 43.1834 50.1869C42.4523 50.9181 41.2627 50.9181 40.5315 50.1869C39.8006 49.4562 39.8007 48.2663 40.5311 47.5352C41.262 46.8049 42.4522 46.8042 43.1834 47.5349C43.9159 48.2673 43.9173 49.4537 43.1837 50.1867Z" fill="#2C4478"/>
<path d="M37.5996 53.1212C36.1337 51.655 33.7622 51.6549 32.2961 53.121C30.8311 54.5861 30.8309 56.9584 32.2961 58.4237C33.7581 59.8856 36.137 59.8861 37.5993 58.424C39.0651 56.9595 39.0662 54.5863 37.5996 53.1212ZM36.2741 57.0976C36.274 57.0977 36.2739 57.0978 36.2738 57.0979C35.5427 57.8291 34.353 57.8291 33.6218 57.0979C32.8896 56.3658 32.8894 55.1792 33.6218 54.4468C34.3549 53.7138 35.5402 53.7133 36.2741 54.4472C37.0068 55.1793 37.0068 56.3653 36.2741 57.0976Z" fill="#2C4478"/>
<path d="M60.4116 39.5879C60.0456 39.2221 59.4518 39.2219 59.0858 39.5879L39.5871 59.0857C39.221 59.4518 39.2209 60.0454 39.5871 60.4116C39.9533 60.7777 40.5468 60.7777 40.9129 60.4116L60.4116 40.9138C60.7777 40.5477 60.7778 39.9541 60.4116 39.5879Z" fill="#2C4478"/>
</g>
<defs>
<clipPath id="clip0_106_120">
<rect width="48" height="48" fill="white" transform="translate(26 26)"/>
</clipPath>
</defs>
</svg>
