<svg width="100" height="100" viewBox="0 0 100 100" fill="none" xmlns="http://www.w3.org/2000/svg">
<rect width="100" height="100" rx="50" fill="#2C4478" fill-opacity="0.1"/>
<g clip-path="url(#clip0_106_212)">
<path d="M46.213 40.0622L46.2134 40.062C47.9827 39.6108 49.051 37.8086 48.598 36.036L48.5979 36.0357C48.1466 34.2668 46.3443 33.1982 44.5726 33.651L46.213 40.0622ZM46.213 40.0622C44.4422 40.515 42.6398 39.4472 42.1884 37.6769L42.1883 37.6764M46.213 40.0622L42.1883 37.6764M42.1883 37.6764C41.7354 35.905 42.8026 34.1037 44.5725 33.651L42.1883 37.6764Z" stroke="#2C4478" stroke-width="1.5"/>
<path d="M51.836 56.1633L51.8373 56.1646C53.6005 57.93 54.5728 60.2795 54.5735 62.7721V62.7725C54.5728 65.2652 53.6004 67.6137 51.8374 69.3798L51.8364 69.3808C50.0706 71.1429 47.7229 72.1159 45.2287 72.1175H45.2278C42.7353 72.1159 40.3861 71.1429 38.6208 69.3807L38.62 69.3799C37.9382 68.6973 37.3706 67.9164 36.9325 67.0667L36.3577 68.3346C38.2695 71.3768 41.6298 73.2486 45.2281 73.2501L51.836 56.1633ZM51.836 56.1633C51.5097 55.8383 51.1535 55.5344 50.7731 55.2551M51.836 56.1633L50.7731 55.2551M50.7731 55.2551L50.8953 53.9738C53.8535 55.8879 55.7061 59.2168 55.7067 62.7723L50.7731 55.2551ZM55.7067 62.7725C55.706 68.5477 51.0042 73.2485 45.2285 73.2501L55.7067 62.7725Z" stroke="#2C4478" stroke-width="1.5"/>
<path d="M45.7868 43.2016L45.7872 43.2016C47.1203 43.3232 47.9964 44.481 47.8612 45.9686C47.8612 45.9691 47.8611 45.9696 47.8611 45.9701L46.8313 56.7589C46.6589 58.3769 46.1916 59.3973 45.4761 60.0324C44.7569 60.6709 43.6589 61.0342 41.9743 61.0533H34.9116H34.4346L34.2323 61.4853L30.5467 69.3575L30.5466 69.3575L30.5418 69.3681C30.2166 70.0918 29.3659 70.4158 28.6402 70.0894L28.6398 70.0892C27.9158 69.7641 27.5924 68.9122 27.918 68.1887L27.9293 68.1635L27.9388 68.1374L31.2027 59.1689C31.5586 58.324 31.9049 57.815 32.3193 57.4958C32.724 57.1841 33.2797 56.9884 34.1898 56.9524L34.2023 56.9519L34.2148 56.951L41.1446 56.4453L41.7796 56.399L41.837 55.7648L42.3128 50.4996L42.463 48.8377L41.1205 49.8287L38.9104 51.4599L38.9101 51.4602C38.6261 51.67 38.2837 51.7828 37.9299 51.7828H32.4644C31.9694 51.7828 31.5682 51.3811 31.5682 50.8873V50.7879C31.5682 50.3234 31.9244 49.9353 32.3895 49.8962L37.6944 49.4502L37.9645 49.4274L38.1577 49.2373L43.2268 44.2477L43.236 44.2388L43.2448 44.2295C43.8521 43.5894 44.8876 43.1191 45.7868 43.2016Z" stroke="#2C4478" stroke-width="1.5"/>
<path d="M65.6899 33.2657L65.6904 33.2656C67.4596 32.8143 68.5279 31.0121 68.0749 29.2395L68.0748 29.2392C67.6236 27.4705 65.8214 26.4018 64.0497 26.8538L65.6899 33.2657ZM65.6899 33.2657C63.9185 33.7185 62.1167 32.6508 61.6646 30.8802M65.6899 33.2657L61.6646 30.8802M61.6646 30.8802C61.2122 29.1085 62.2789 27.3072 64.0495 26.8539L61.6646 30.8802Z" stroke="#2C4478" stroke-width="1.5"/>
<path d="M70.8934 73.9926L70.9758 73.9855C72.0971 73.8918 72.9593 72.955 72.9593 71.8308M70.8934 73.9926L70.8321 73.2451L70.9112 73.2383L70.9133 73.2381C71.6446 73.177 72.2064 72.5677 72.2093 71.8365M70.8934 73.9926C69.7075 74.0898 68.665 73.2121 68.5613 72.0275L64.3332 52.7136C64.3562 52.8921 64.332 53.0726 64.3105 53.1972C64.2859 53.3392 64.2486 53.4939 64.2063 53.6489C64.1213 53.9597 64.0029 54.3189 63.883 54.6647C63.7744 54.9777 63.669 55.2687 63.5787 55.5182C63.4563 55.8564 63.3615 56.1182 63.3238 56.255L63.3197 56.27L63.3149 56.2848L58.6797 70.7432L58.6793 70.7445C58.4414 71.4819 58.8431 72.274 59.58 72.5178L59.5763 72.5166L59.3489 73.2313M70.8934 73.9926L70.8288 73.2454L70.8308 73.2452C70.0556 73.3081 69.376 72.7341 69.3084 71.9621L69.3085 71.9621L69.3076 71.9532L68.0513 59.3462L66.6118 59.1344L61.403 71.7523L62.0937 72.0446M72.2093 71.8365L72.2094 71.8433L72.9593 71.8308M72.2093 71.8365C72.2093 71.8346 72.2093 71.8327 72.2093 71.8308H72.9593M72.2093 71.8365L71.9033 53.4277M72.9593 71.8308L72.6525 53.3735L71.9086 53.4691L71.9033 53.4277M71.9033 53.4277L70.0646 39.119C70.0646 39.1187 70.0645 39.1184 70.0645 39.118C69.8701 37.6467 68.9464 36.7735 67.8292 36.4611C66.6836 36.1408 65.3304 36.413 64.3505 37.3141L64.3451 37.319L64.3451 37.319L58.6041 42.496L58.4987 42.5911L58.3659 42.641L52.872 44.7076L52.8665 44.7097L52.8665 44.7097C52.3963 44.8824 52.144 45.3932 52.2929 45.8714L52.2949 45.878L52.2949 45.8781L52.3137 45.9404C52.4596 46.4047 52.9361 46.6811 53.4114 46.578L57.6251 45.4228L57.64 45.4188L57.655 45.4153C58.4718 45.2271 59.2474 44.8904 59.9415 44.4223L59.9549 44.4132L59.9687 44.4047L62.0389 43.135L63.0275 42.5286L63.175 43.6789L64.3331 52.7125L71.9033 53.4277ZM62.0937 72.0446L61.4005 71.7584L61.4019 71.7549C61.1148 72.4296 60.3589 72.773 59.6612 72.5436L59.6612 72.5436L59.6544 72.5414L59.583 72.5187L59.3489 73.2313M62.0937 72.0446C61.6555 73.08 60.4966 73.6077 59.427 73.2561M62.0937 72.0446L59.427 73.2561M59.3489 73.2313L59.427 73.2561M59.3489 73.2313C58.2183 72.8599 57.6005 71.6455 57.9655 70.5142L62.6007 56.0558C62.6452 55.8945 62.7589 55.5798 62.8941 55.2054L59.427 73.2561" stroke="#2C4478" stroke-width="1.5"/>
</g>
<defs>
<clipPath id="clip0_106_212">
<rect width="48" height="48" fill="white" transform="translate(26 26)"/>
</clipPath>
</defs>
</svg>
