<svg width="100" height="100" viewBox="0 0 100 100" fill="none" xmlns="http://www.w3.org/2000/svg">
<rect width="100" height="100" rx="50" fill="#2C4478" fill-opacity="0.1"/>
<g clip-path="url(#clip0_106_98)">
<path d="M53.7351 74H46.2844C46.2756 74 46.2671 73.9999 46.2583 73.9997H37.7185C37.0817 73.9997 36.5655 73.4835 36.5655 72.8467C36.5655 72.21 37.0817 71.6937 37.7185 71.6937H45.1314V66.607C40.3697 65.3171 36.2852 62.1592 33.8273 57.7184H30.9355C30.2988 57.7184 29.7825 57.2021 29.7825 56.5654C29.7825 55.9286 30.2988 55.4124 30.9355 55.4124H45.345C45.9817 55.4124 46.498 55.9286 46.498 56.5654C46.498 57.2021 45.9817 57.7184 45.345 57.7184H45.1078C46.5898 58.5328 48.2616 58.9645 50.0097 58.9645C55.2478 58.9645 59.577 54.998 60.1516 49.911H59.6605C59.0237 49.911 58.5075 49.3948 58.5075 48.758C58.5075 48.1213 59.0237 47.605 59.6605 47.605H60.1516C59.577 42.5181 55.2478 38.5517 50.0097 38.5517C49.0437 38.5517 48.0914 38.6857 47.1741 38.9506L46.9249 40.0775L47.9668 40.3127C48.5881 40.453 48.9779 41.0701 48.8377 41.6911C48.6975 42.3126 48.0798 42.7023 47.4593 42.5621L46.4269 42.3292L45.6866 45.6765L46.7044 45.9062C47.3257 46.0464 47.7155 46.6636 47.5753 47.2846C47.4351 47.9061 46.8176 48.2955 46.1969 48.1556L44.0817 47.6782C44.0742 47.6766 44.0667 47.6751 44.0591 47.6733L36.791 46.0332C36.7825 46.0313 36.7743 46.0294 36.766 46.0273L34.6531 45.5504C34.0318 45.4101 33.6419 44.793 33.7822 44.172C33.9224 43.5505 34.5405 43.1611 35.1606 43.301L36.169 43.5286L36.9094 40.1811L35.9153 39.9567C35.294 39.8165 34.9042 39.1994 35.0444 38.5783C35.1846 37.957 35.8013 37.5672 36.4228 37.7074L37.4075 37.9296L39.8459 26.9041C39.9122 26.6047 40.095 26.3439 40.3538 26.1797C40.6128 26.0153 40.9266 25.9608 41.2256 26.0284L48.4934 27.6687C49.1125 27.8085 49.5024 28.4224 49.3653 29.0423L49.0904 30.286C49.3966 30.271 49.7035 30.2634 50.0097 30.2634C59.8207 30.2634 67.8722 37.942 68.4694 47.6052H69.0646C69.7013 47.6052 70.2176 48.1214 70.2176 48.7582C70.2176 49.3949 69.7013 49.9111 69.0646 49.9111H68.4694C67.9749 57.9118 62.3703 64.5521 54.8882 66.6004V71.6939H62.3014C62.9381 71.6939 63.4544 72.2101 63.4544 72.8469C63.4544 73.4836 62.9381 73.9999 62.3014 73.9999H53.7613C53.7524 73.9999 53.7439 74 53.7351 74ZM47.4374 71.6937H52.5821V67.253H47.4374V71.6937ZM36.5221 57.7184C39.504 62.2203 44.515 64.947 50.0096 64.947C58.549 64.947 65.5652 58.3021 66.158 49.911H62.4696C61.8857 56.2721 56.5204 61.2705 50.0096 61.2705C46.7064 61.2705 43.6246 60.0128 41.2763 57.7184H36.5221ZM62.4697 47.605H66.1582C65.5652 39.2142 58.549 32.5692 50.0096 32.5692C49.5298 32.5692 49.0484 32.5902 48.5714 32.6323L47.7262 36.4538C48.4758 36.3156 49.2394 36.2458 50.0097 36.2458C56.5204 36.2457 61.8859 41.2442 62.4697 47.605ZM38.4186 44.0363L43.4371 45.1687L44.1774 41.8214L39.159 40.6889L38.4186 44.0363ZM39.6568 38.4372L44.6752 39.5698L46.4875 31.3756C46.4928 31.3452 46.4996 31.315 46.5074 31.2855L46.8656 29.6652L41.8474 28.5327L39.6568 38.4372Z" fill="#2C4478"/>
</g>
<defs>
<clipPath id="clip0_106_98">
<rect width="48" height="48" fill="white" transform="translate(26 26)"/>
</clipPath>
</defs>
</svg>
